<?xml version="1.0" encoding="UTF-8"?>
<svg width="285px" height="70px" viewBox="0 0 285 70" version="1.1" xmlns="http://www.w3.org/2000/svg" xmlns:xlink="http://www.w3.org/1999/xlink">
    <title>LOGO</title>
    <g id="Layout" stroke="none" stroke-width="1" fill="none" fill-rule="evenodd">
        <g id="Homepage" transform="translate(-84, -35)">
            <g id="LOGO" transform="translate(84, 35)">
                <g id="GS_logo">
                    <path d="M18.7410075,19.5745631 C15.5921588,19.5745631 12.8822824,20.6830818 10.863701,22.6777204 C12.8788259,24.6410842 15.5887023,25.7496029 18.7410075,25.7496029 C21.8933127,25.7496029 24.5375161,24.6410842 26.618314,22.6777204 C24.5375161,20.6830818 21.7343149,19.5745631 18.7410075,19.5745631 L18.7410075,19.5745631 Z" id="Path" fill="#FFFFFF" fill-rule="nonzero"></path>
                    <path d="M39.3070338,19.5745631 C36.1581851,19.5745631 33.4483087,20.6830818 31.4297272,22.6777204 C33.4448522,24.6410842 36.1547286,25.7496029 39.3070338,25.7496029 C42.459339,25.7496029 45.1035424,24.6410842 47.1843403,22.6777204 C45.1035424,20.6830818 42.3003412,19.5745631 39.3070338,19.5745631 L39.3070338,19.5745631 Z" id="Path" fill="#FFFFFF" fill-rule="nonzero"></path>
                    <g id="Group" transform="translate(27.911, 52.0587)">
                        <rect id="Rectangle" fill="#FFFFFF" fill-rule="nonzero" x="0" y="2.24483717" width="2.22942638" height="12.7080024"></rect>
                        <line x1="1.11298495" y1="0" x2="1.11298495" y2="17.9413225" id="Path" stroke="#FFFFFF" stroke-width="0.483098592"></line>
                    </g>
                    <path d="M52.071796,30.3748014 L58.0203895,30.3748014 L58.0203895,7.2974583 L54.6710652,5.66074265 C47.2154486,2.01896346 39.2102525,0.121624305 30.8697783,0 L30.8697783,5.98044083 C38.4567409,6.10554011 45.6496654,7.90210485 52.071796,11.0400119 L52.071796,30.3748014 Z" id="Path" fill="#FFFFFF" fill-rule="nonzero"></path>
                    <path d="M52.071796,34.1138801 L52.071796,36.1710683 C52.071796,47.3361795 43.7900819,56.7116759 33.0369881,58.275417 C32.3076719,58.3900913 31.5852686,58.456116 30.8697783,58.4943407 L30.8697783,64.4747816 C31.8756125,64.4330818 32.8952727,64.3496823 33.9253022,64.1863582 C47.6647904,62.1708697 58.0203895,50.1335385 58.0203895,36.1710683 L58.0203895,34.1138801 L52.071796,34.1138801 L52.071796,34.1138801 Z" id="Path" fill="#FFFFFF" fill-rule="nonzero"></path>
                    <path d="M0.18664965,30.3748014 L6.13524314,30.3748014 L5.97970176,11.2624106 C12.3810935,8.07585385 19.5705615,6.19241461 27.1540677,5.98739079 L27.1540677,0.00694996029 C18.9034618,0.211973789 10.6977902,2.23788721 3.33895486,5.90399126 L0,7.56503177 L0.0311082751,11.3110604 L0.18664965,30.3748014 Z" id="Path" fill="#FFFFFF" fill-rule="nonzero"></path>
                    <path d="M6.16980789,36.1710683 L6.15252551,34.1138801 L0.203932025,34.1138801 L0.221214401,36.1953932 C0.235040301,50.1196386 10.5595312,62.132645 24.267911,64.1794083 C25.2115287,64.3427323 26.1758852,64.4435068 27.1540677,64.4886815 L27.1540677,58.4908658 C26.5007939,58.449166 25.8509766,58.3866164 25.2080722,58.275417 C14.517195,56.7116759 6.17326436,47.3361795 6.17326436,36.1710683 L6.16980789,36.1710683 Z" id="Path" fill="#FFFFFF" fill-rule="nonzero"></path>
                    <polygon id="Path" fill="#FFFFFF" fill-rule="nonzero" points="49.1165099 36.2509929 44.598897 37.283062 47.7477458 40.7024424"></polygon>
                    <polygon id="Path" fill="#FFFFFF" fill-rule="nonzero" points="8.91079257 36.2509929 13.4318619 37.283062 10.2830131 40.7024424"></polygon>
                    <g id="Group" transform="translate(10.124, 37.8599)" fill="#FFFFFF" fill-rule="nonzero">
                        <polygon id="Path" points="28.3534645 2.53326052 25.2011593 2.53326052 22.0523106 0 19.1419586 0 19.1419586 5.26111994 22.0523106 7.59978157 31.5023132 7.59978157 37.8034672 0"></polygon>
                        <polygon id="Path" points="18.6580521 0 15.7511566 0 12.5988514 2.53326052 9.45000267 2.53326052 0 0 6.29769746 7.59978157 15.7511566 7.59978157 18.6580521 5.26111994"></polygon>
                    </g>
                </g>
                <g id="GS_text" transform="translate(85.7958, 23.662)" fill="#FFFFFF" fill-rule="nonzero">
                    <path d="M19.3225636,7.82393175 L15.328915,20.6925478 L10.5341451,20.6925478 C9.23082866,20.6925478 7.93946921,20.5524177 6.68398086,20.26048 C5.4284925,19.9685422 4.29257447,19.4780868 3.31209785,18.7540812 C2.33162123,18.0417531 1.53050009,17.0725197 0.92069146,15.8463812 C0.310882831,14.6202426 0,13.0788113 0,11.2104097 C0,9.96091609 0.215226575,8.67638998 0.657636757,7.34515383 C1.10004694,6.01391769 1.69789854,4.81113415 2.45119155,3.7134482 C3.20448456,2.61576226 4.08930493,1.72827149 5.10565264,1.0392984 C6.12200036,0.350325302 7.1861762,0 8.29818017,0 L21.5226575,0 C20.9128489,0.992588356 20.2910832,1.91511165 19.6693176,2.79092491 C19.0475519,3.66673816 18.342087,4.48416387 17.576837,5.26655704 L9.26669976,5.26655704 C8.91994583,5.26655704 8.59710597,5.38333214 8.28622314,5.59352732 C7.97534031,5.81540001 7.68837154,6.10733777 7.42531684,6.46934058 C7.16226214,6.83134339 6.9231215,7.24005624 6.70789492,7.69547914 C6.49266835,8.15090203 6.3252699,8.59464741 6.19374255,9.03839279 C6.11004333,9.35368557 6.05025817,9.64562332 5.99047301,9.91420605 C5.94264488,10.1827888 5.90677378,10.4280165 5.90677378,10.6382117 C5.90677378,11.1286671 6.01438707,11.654155 6.22961364,12.2146755 C6.44484022,12.775196 6.70789492,13.2890065 7.03073479,13.7561069 C7.35357465,14.2232073 7.71228561,14.6085651 8.10686766,14.9238579 C8.50144971,15.2391506 8.89603177,15.3909583 9.26669976,15.3909583 L11.1798249,15.3909583 L11.8972468,12.8569386 L8.29818017,12.8569386 L8.29818017,12.8219061 C8.32209424,12.7401635 8.45362159,12.4949358 8.69276223,12.0628679 C8.93190286,11.6308 9.21887163,11.1520221 9.55366853,10.6148567 C9.88846542,10.0776912 10.2471764,9.55220324 10.6298014,9.01503777 C11.0124264,8.47787231 11.3591804,8.06915946 11.6461491,7.78889922 L19.3106066,7.78889922 L19.3225636,7.82393175 Z" id="Path"></path>
                    <path d="M20.9128489,8.67638998 L23.4238256,0.0233550201 L29.4501697,0.0233550201 C28.7088337,2.67414981 28.1348962,4.74106909 27.7283571,6.20075785 C27.333775,7.67212412 27.0348492,8.76981006 26.8315797,9.49381569 C26.6283101,10.2178213 26.5087398,10.6849217 26.4728687,10.8834394 C26.4369976,11.0819571 26.4130836,11.2104097 26.4130836,11.2921522 C26.3652554,11.5257024 26.3174273,11.7475751 26.2935133,11.9577703 C26.2695992,12.1679655 26.2576422,12.3664832 26.2576422,12.5416458 C26.2576422,13.4524916 26.4369976,14.1648197 26.7957086,14.6669526 C27.1544196,15.1690856 27.6446579,15.4259908 28.2544665,15.4259908 L29.8088806,15.4259908 C30.311076,15.4259908 30.7893573,15.2975382 31.2317674,15.040633 C31.6741776,14.7837277 32.0568027,14.4567575 32.3915995,14.0713996 C32.7263964,13.6860418 33.0133652,13.2656514 33.2644629,12.8219061 C33.5155605,12.3781607 33.7188301,11.9811253 33.8862285,11.607445 L37.3657248,0.0233550201 L43.4398971,0.0233550201 L40.5702094,9.65730083 C40.032143,11.4556374 39.4940765,13.0321012 38.9560101,14.3983699 C38.4059866,15.7646386 37.784221,16.9090346 37.0787561,17.8549129 C36.3732912,18.7891137 35.560213,19.5014418 34.6275645,19.9802197 C33.694916,20.4589976 32.5948691,20.7042254 31.3154667,20.7042254 L27.5968297,20.7042254 C26.1022007,20.7042254 24.8586694,20.5991278 23.8662358,20.3889326 C22.8738021,20.1787374 22.072681,19.8517671 21.4748294,19.3963442 C20.8769778,18.9409213 20.4465246,18.3453683 20.195427,17.6213627 C19.9443293,16.8973571 19.8128019,16.0098663 19.8128019,14.9705679 C19.8128019,14.6903077 19.824759,14.3866924 19.848673,14.0713996 C19.8725871,13.7561069 19.9204152,13.4174591 19.9682434,13.0554563 C20.0997707,12.3781607 20.2432551,11.7008651 20.3867395,11.0235695 C20.5302239,10.3462739 20.7095793,9.56388075 20.9248059,8.68806749 L20.9128489,8.67638998 Z" id="Path"></path>
                    <polygon id="Path" points="48.5096786 10.8717619 44.910612 0.0233550201 51.7380772 0.0233550201 53.3403195 4.89287672 57.8959487 0.0233550201 64.7234139 0.0233550201 54.655593 10.8717619 51.7022061 20.7042254 45.5921628 20.7042254 48.5096786 10.8717619"></polygon>
                    <path d="M84.9307979,14.1414647 L84.9307979,13.9079145 C84.9307979,13.6977193 84.9068839,13.4875241 84.8470987,13.2656514 C84.7873135,13.0437787 84.6797003,12.9386812 84.4883877,12.9386812 L78.1033327,12.9386812 C77.46961,12.9386812 76.8837154,12.751841 76.3695631,12.3781607 C75.8554107,12.0044804 75.4130005,11.5257024 75.0542895,10.9301494 C74.6955786,10.3345964 74.4205668,9.70401087 74.2172973,9.00336026 C74.0140278,8.30270966 73.9183715,7.61373656 73.9183715,6.93644098 C73.9183715,6.31753295 74.0618559,5.60520483 74.3607817,4.81113415 C74.6477504,4.01706346 75.0423325,3.26970282 75.5206138,2.5456972 C75.9988951,1.83336908 76.5369615,1.23781607 77.1228561,0.747360644 C77.7087506,0.268582732 78.3066022,0.0233550201 78.9164109,0.0233550201 L95.2138454,0.0233550201 C94.7116501,0.910845785 94.1496696,1.78665904 93.5398609,2.67414981 C92.9300523,3.56164057 92.2365444,4.43745383 91.4593374,5.32494459 L80.9132352,5.32494459 C80.6740946,5.32494459 80.470825,5.52346226 80.2914695,5.90882009 C80.112114,6.29417793 80.0284148,6.6094707 80.0284148,6.8430209 L80.0284148,7.04153857 C80.0284148,7.04153857 80.0642859,7.12328114 80.1479851,7.21670122 C80.2316844,7.3101213 80.2914695,7.38018636 80.3512547,7.4268964 C80.4349539,7.53199399 80.5545242,7.62541407 80.7099656,7.71883416 C80.8654071,7.81225424 80.9610633,7.85896428 80.9849774,7.85896428 L87.0591496,7.85896428 C87.7287434,7.85896428 88.3026809,8.05748195 88.7929192,8.4661948 C89.2831576,8.87490765 89.6896966,9.37704059 90.0125365,9.98427111 C90.3353764,10.5915016 90.56256,11.2571197 90.7060444,11.9577703 C90.8495287,12.6584209 90.9212709,13.3123615 90.9212709,13.9079145 L90.9212709,14.1414647 C90.9212709,14.8187603 90.7897436,15.5427659 90.5386459,16.3018041 C90.2875482,17.0725197 89.9407943,17.7731703 89.5222982,18.4271109 C89.091845,19.0810515 88.6135638,19.6182169 88.0874544,20.0502848 C87.5493879,20.4823527 86.9993645,20.6925478 86.4134699,20.6925478 L70.1160353,20.6925478 C70.2236486,20.4356426 70.4388752,20.0152523 70.7736721,19.4430543 C71.108469,18.8708563 71.4552229,18.2869808 71.8258909,17.7031053 C72.1965589,17.1192298 72.5433128,16.5937418 72.8422386,16.1383189 C73.1531215,15.682896 73.344434,15.4610233 73.4161762,15.4610233 L84.2731612,15.4610233 C84.596001,15.4610233 84.7753565,15.3442482 84.8351417,15.110698 C84.8829698,14.8771478 84.9188409,14.6319201 84.9188409,14.3750149 L84.9188409,14.1414647 L84.9307979,14.1414647 Z" id="Path"></path>
                    <path d="M100.546682,5.28991206 L94.5203375,5.28991206 L94.5203375,5.25487953 C94.5442516,5.14978194 94.699693,4.8695217 94.9747048,4.4024213 C95.2497165,3.93532089 95.5964704,3.40983294 95.9910525,2.83763495 C96.3856345,2.26543695 96.7921736,1.71659398 97.2106697,1.17942852 C97.6291659,0.642263054 97.9759198,0.268582732 98.2748456,0.0233550201 L114.285311,0.0233550201 C114.12987,0.385357832 113.878772,0.864135745 113.532018,1.44801125 C113.185264,2.03188675 112.814596,2.61576226 112.420014,3.18796025 C112.025432,3.76015824 111.63085,4.25061367 111.260182,4.67100403 C110.889514,5.09139439 110.62646,5.28991206 110.459061,5.28991206 L106.668682,5.28991206 L102.077182,20.6925478 L95.9671384,20.6925478 L100.558639,5.28991206 L100.546682,5.28991206 Z" id="Path"></path>
                    <path d="M131.57518,13.8261719 C130.9295,15.1807631 130.140336,16.3601916 129.19573,17.376135 C128.251125,18.3920784 127.186949,19.1978266 126.01516,19.7933796 C124.843371,20.3889326 123.623753,20.6925478 122.344351,20.6925478 L119.151823,20.6925478 C117.980034,20.6925478 116.891944,20.5757727 115.899511,20.3422225 C114.907077,20.1086723 114.034214,19.711637 113.304835,19.1511165 C112.575456,18.590596 112.001518,17.8315579 111.583022,16.874002 C111.164526,15.9164462 110.961256,14.7019852 110.961256,13.2422964 C110.961256,12.9270036 110.973214,12.6000334 110.997128,12.2730631 C111.021042,11.9344153 111.06887,11.58409 111.116698,11.2220872 C111.272139,9.76239842 111.666721,8.36109721 112.300444,7.00650604 C112.92221,5.65191487 113.68746,4.46080885 114.596194,3.43318796 C115.504929,2.40556707 116.509319,1.57646386 117.609366,0.957555826 C118.709413,0.338647792 119.821417,0.0233550201 120.945378,0.0233550201 L125.178167,0.0233550201 C127.736972,0.0233550201 129.674011,0.560520483 131.013199,1.64652892 C132.34043,2.72085985 133.010023,4.50751889 133.010023,7.00650604 C133.010023,7.39186387 132.998066,7.80057673 132.974152,8.22096709 C132.950238,8.64135745 132.90241,9.06174781 132.854582,9.5054932 C132.639355,11.035247 132.220859,12.4832583 131.57518,13.8378494 L131.57518,13.8261719 Z M117.083257,10.9418269 L117.083257,11.1753771 C117.083257,11.6424775 117.154999,12.132933 117.298483,12.6350659 C117.441968,13.1371988 117.645237,13.6042992 117.920249,14.0246896 C118.183304,14.44508 118.48223,14.7837277 118.817026,15.040633 C119.151823,15.2975382 119.510534,15.4259908 119.917073,15.4259908 L121.997597,15.4259908 C122.212824,15.4259908 122.511749,15.3208932 122.918288,15.0990205 C123.31287,14.8771478 123.731367,14.5852101 124.16182,14.2232073 C124.592273,13.8612045 124.998812,13.4524916 125.381437,12.9970687 C125.764062,12.5416458 126.051031,12.0979004 126.242343,11.654155 C126.433656,11.3155073 126.553226,11.035247 126.601054,10.8016968 L126.720625,10.416339 C126.768453,10.1594338 126.804324,10.0426587 126.804324,10.0660137 C126.804324,9.8558185 126.804324,9.64562332 126.828238,9.42375063 C126.840195,9.20187793 126.852152,8.98000524 126.852152,8.74645504 C126.852152,8.32606468 126.816281,7.91735183 126.756496,7.49696146 C126.684753,7.0765711 126.565183,6.71456829 126.373871,6.38759801 C126.182558,6.06062773 125.93146,5.8037225 125.596664,5.60520483 C125.261867,5.40668716 124.831414,5.31326708 124.305304,5.31326708 L121.710628,5.31326708 C121.387788,5.31326708 121.029077,5.43004218 120.634495,5.64023736 C120.239913,5.86211005 119.845331,6.15404781 119.462706,6.51605062 C119.080081,6.87805343 118.72137,7.28676628 118.386573,7.74218918 C118.051776,8.19761207 117.788722,8.64135745 117.609366,9.08510283 C117.501753,9.40039561 117.406097,9.69233336 117.334355,9.96091609 C117.250655,10.2294988 117.202827,10.4747265 117.178913,10.6849217 C117.154999,10.7082767 117.143042,10.8016968 117.143042,10.9535044 L117.083257,10.9418269 Z" id="Shape"></path>
                    <path d="M134.492695,11.1403446 C134.492695,9.89085103 134.707922,8.60632492 135.150332,7.27508877 C135.592742,5.94385263 136.190594,4.7527466 136.943887,3.69009318 C137.69718,2.62743977 138.582,1.75162651 139.598348,1.06265342 C140.614696,0.373680322 141.678872,0.0233550201 142.790876,0.0233550201 L156.015353,0.0233550201 C155.405544,1.01594338 154.783779,1.93846667 154.162013,2.81427993 C153.540247,3.69009318 152.834782,4.50751889 152.069532,5.28991206 L143.759395,5.28991206 C143.460469,5.28991206 143.161544,5.40668716 142.862618,5.61688234 C142.551735,5.83875503 142.264766,6.13069279 141.977797,6.4926956 C141.702786,6.85469841 141.439731,7.26341126 141.224504,7.71883416 C140.997321,8.17425705 140.817965,8.61800243 140.686438,9.06174781 C140.602739,9.37704059 140.542954,9.66897834 140.483168,9.93756107 C140.43534,10.2061438 140.399469,10.4513715 140.399469,10.6615667 C140.399469,11.1520221 140.507082,11.6775101 140.722309,12.2380306 C140.937536,12.798551 141.212547,13.3123615 141.535387,13.7794619 C141.858227,14.2465623 142.228895,14.6319201 142.61152,14.9472129 C142.994145,15.2625057 143.37677,15.4143133 143.747438,15.4143133 L151.411896,15.4143133 C150.9097,16.3018041 150.34772,17.2009723 149.737911,18.1234956 C149.128102,19.0460189 148.410681,19.8984772 147.585645,20.6808703 L145.02684,20.6808703 C143.723524,20.6808703 142.432165,20.5407402 141.176676,20.2488025 C139.921188,19.9568647 138.78527,19.4664093 137.804793,18.7424037 C136.824317,18.0300755 136.023195,17.0608422 135.413387,15.8347037 C134.803578,14.6085651 134.492695,13.0671338 134.492695,11.1987322 L134.492695,11.1169896 L134.492695,11.1403446 Z" id="Path"></path>
                    <polygon id="Path" points="157.653466 0.0233550201 163.76351 0.0233550201 161.013392 9.30697552 171.595365 0.0233550201 178.422831 0.0233550201 167.362576 10.3579514 173.508491 20.6925478 166.645154 20.6925478 160.415541 11.4089273 157.617595 20.6925478 151.471681 20.6925478 157.665423 0.0233550201"></polygon>
                    <path d="M188.921105,14.1414647 L188.921105,13.9079145 C188.921105,13.6977193 188.897191,13.4875241 188.837406,13.2656514 C188.77762,13.0437787 188.670007,12.9386812 188.478695,12.9386812 L182.09364,12.9386812 C181.459917,12.9386812 180.874022,12.751841 180.35987,12.3781607 C179.845718,12.0044804 179.403307,11.5257024 179.044596,10.9301494 C178.685885,10.3345964 178.410874,9.70401087 178.207604,9.00336026 C178.004335,8.30270966 177.908678,7.61373656 177.908678,6.93644098 C177.908678,6.31753295 178.052163,5.60520483 178.351089,4.81113415 C178.638057,4.01706346 179.032639,3.26970282 179.510921,2.5456972 C179.989202,1.83336908 180.527268,1.23781607 181.113163,0.747360644 C181.699057,0.268582732 182.296909,0.0233550201 182.906718,0.0233550201 L199.204152,0.0233550201 C198.701957,0.910845785 198.139976,1.78665904 197.530168,2.67414981 C196.920359,3.56164057 196.226851,4.43745383 195.449644,5.32494459 L184.903542,5.32494459 C184.664401,5.32494459 184.461132,5.52346226 184.281776,5.90882009 C184.102421,6.29417793 184.018722,6.6094707 184.018722,6.8430209 L184.018722,7.04153857 C184.018722,7.04153857 184.054593,7.12328114 184.138292,7.21670122 C184.221991,7.3101213 184.281776,7.38018636 184.341562,7.4268964 C184.425261,7.53199399 184.544831,7.62541407 184.700272,7.71883416 C184.855714,7.81225424 184.95137,7.85896428 184.975284,7.85896428 L191.049456,7.85896428 C191.71905,7.85896428 192.292988,8.05748195 192.783226,8.4661948 C193.273464,8.87490765 193.680003,9.37704059 194.002843,9.98427111 C194.325683,10.5915016 194.552867,11.2571197 194.696351,11.9577703 C194.839836,12.6584209 194.911578,13.3123615 194.911578,13.9079145 L194.911578,14.1414647 C194.911578,14.8187603 194.78005,15.5427659 194.528953,16.3018041 C194.277855,17.0725197 193.931101,17.7731703 193.512605,18.4271109 C193.082152,19.0810515 192.603871,19.6182169 192.077761,20.0502848 C191.539695,20.4823527 190.989671,20.6925478 190.403777,20.6925478 L174.106342,20.6925478 C174.213955,20.4356426 174.429182,20.0152523 174.763979,19.4430543 C175.098776,18.8708563 175.44553,18.2869808 175.816198,17.7031053 C176.186866,17.1192298 176.53362,16.5937418 176.832545,16.1383189 C177.143428,15.682896 177.334741,15.4610233 177.406483,15.4610233 L188.263468,15.4610233 C188.586308,15.4610233 188.765663,15.3442482 188.825449,15.110698 C188.873277,14.8771478 188.909148,14.6319201 188.909148,14.3750149 L188.909148,14.1414647 L188.921105,14.1414647 Z" id="Path"></path>
                </g>
            </g>
        </g>
    </g>
</svg>